HIERARCHY
ROOT Hips
{
	OFFSET 0.000000 0.000000 0.000000
	CHANNELS 6 Xposition Yposition Zposition Xrotation Yrotation Zrotation
	JOINT LeftUpLeg_virtual
	{
		OFFSET 0.000000 0.000000 0.000000
		CHANNELS 3 Xrotation Yrotation Zrotation
		JOINT LeftUpLeg
		{
			OFFSET 11.394100 -6.187798 -0.413800
			CHANNELS 3 Xrotation Yrotation Zrotation
			JOINT LeftLeg
			{
				OFFSET 0.430247 -32.302673 3.732800
				CHANNELS 3 Xrotation Yrotation Zrotation
				JOINT LeftFoot
				{
					OFFSET -0.430247 -48.264931 -6.423300
					CHANNELS 3 Xrotation Yrotation Zrotation
					JOINT LeftToeBase
					{
						OFFSET 4.230900 -16.068199 23.438400
						CHANNELS 3 Xrotation Yrotation Zrotation
						JOINT LeftToe_End
						{
							OFFSET 4.510700 0.695400 19.974600
							CHANNELS 3 Xrotation Yrotation Zrotation
							End Site
							{
								OFFSET 0 0 0
							}
						}
					}
				}
			}
		}
	}
	JOINT RightUpLeg_virtual
	{
		OFFSET 0.000000 0.000000 0.000000
		CHANNELS 3 Xrotation Yrotation Zrotation
		JOINT RightUpLeg
		{
			OFFSET -11.333700 -6.187798 -0.413800
			CHANNELS 3 Xrotation Yrotation Zrotation
			JOINT RightLeg
			{
				OFFSET -0.430392 -32.302628 3.733000
				CHANNELS 3 Xrotation Yrotation Zrotation
				JOINT RightFoot
				{
					OFFSET 0.430392 -48.264973 -6.423500
					CHANNELS 3 Xrotation Yrotation Zrotation
					JOINT RightToeBase
					{
						OFFSET -4.230900 -16.068199 23.438400
						CHANNELS 3 Xrotation Yrotation Zrotation
						JOINT RightToe_End
						{
							OFFSET -4.510700 0.695400 19.974600
							CHANNELS 3 Xrotation Yrotation Zrotation
							End Site
							{
								OFFSET 0 0 0
							}
						}
					}
				}
			}
		}
	}
	JOINT Spine_virtual
	{
		OFFSET 0.000000 0.000000 0.000000
		CHANNELS 3 Xrotation Yrotation Zrotation
		JOINT Spine
		{
			OFFSET -0.002400 12.777504 0.315300
			CHANNELS 3 Xrotation Yrotation Zrotation
			JOINT Spine1
			{
				OFFSET -0.002067 5.816869 0.032633
				CHANNELS 3 Xrotation Yrotation Zrotation
				JOINT Spine1_split
				{
					OFFSET -0.002067 5.816869 0.032633
					CHANNELS 3 Xrotation Yrotation Zrotation
					JOINT Spine2
					{
						OFFSET -0.002067 5.816869 0.032633
						CHANNELS 3 Xrotation Yrotation Zrotation
						JOINT Neck_virtual
						{
							OFFSET 0.000000 0.000000 0.000000
							CHANNELS 3 Xrotation Yrotation Zrotation
							JOINT Neck
							{
								OFFSET -0.003700 21.199493 -0.826900
								CHANNELS 3 Xrotation Yrotation Zrotation
								JOINT Head
								{
									OFFSET 0.000000 20.442200 4.834800
									CHANNELS 3 Xrotation Yrotation Zrotation
									JOINT HeadTop_End
									{
										OFFSET 0.000000 34.668396 4.968400
										CHANNELS 3 Xrotation Yrotation Zrotation
										End Site
										{
											OFFSET 0 0 0
										}
									}
								}
							}
						}
						JOINT LeftShoulder_virtual
						{
							OFFSET 0.000000 0.000000 0.000000
							CHANNELS 3 Xrotation Yrotation Zrotation
							JOINT LeftShoulder
							{
								OFFSET 3.288150 8.794197 -1.372250
								CHANNELS 3 Xrotation Yrotation Zrotation
								JOINT LeftShoulder_split
								{
									OFFSET 3.288150 8.794197 -1.372250
									CHANNELS 3 Xrotation Yrotation Zrotation
									JOINT LeftArm
									{
										OFFSET 11.953299 -2.279007 -0.146200
										CHANNELS 3 Xrotation Yrotation Zrotation
										JOINT LeftForeArm
										{
											OFFSET 18.448900 0.000000 0.000000
											CHANNELS 3 Xrotation Yrotation Zrotation
											JOINT LeftHand
											{
												OFFSET 29.527798 0.000000 0.000000
												CHANNELS 3 Xrotation Yrotation Zrotation
												End Site
												{
													OFFSET 0 0 0
												}
											}
										}
									}
								}
							}
						}
						JOINT RightShoulder_virtual
						{
							OFFSET 0.000000 0.000000 0.000000
							CHANNELS 3 Xrotation Yrotation Zrotation
							JOINT RightShoulder
							{
								OFFSET -3.249400 8.794197 -1.372250
								CHANNELS 3 Xrotation Yrotation Zrotation
								JOINT RightShoulder_split
								{
									OFFSET -3.249400 8.794197 -1.372250
									CHANNELS 3 Xrotation Yrotation Zrotation
									JOINT RightArm
									{
										OFFSET -11.953299 -2.279007 -0.146200
										CHANNELS 3 Xrotation Yrotation Zrotation
										JOINT RightForeArm
										{
											OFFSET -18.448900 0.000000 0.000000
											CHANNELS 3 Xrotation Yrotation Zrotation
											JOINT RightHand
											{
												OFFSET -29.527802 0.000000 0.000000
												CHANNELS 3 Xrotation Yrotation Zrotation
												End Site
												{
													OFFSET 0 0 0
												}
											}
										}
									}
								}
							}
						}
					}
				}
			}
		}
	}
}
MOTION
Frames: 6
Frame Time: 0.03333333
-33.124699 49.956459 281.719910 0.000000 0.000000 0.000000 -170.002384 13.667747 -177.344482 -111.599854 -10.729353 37.312668 107.878965 -3.472061 -4.062446 19.406212 -8.107143 10.679558 -0.468324 0.000006 0.000007 0.000000 0.000000 0.000000 -170.002384 13.667747 -177.344482 -118.605852 15.094418 -13.406218 112.086826 -4.457834 2.739493 17.194344 0.946476 -14.314419 -0.706159 0.000005 -0.000001 0.000000 0.000000 0.000000 -170.002384 13.667747 -177.344482 16.798437 -3.852827 -8.880798 3.969191 -0.741154 -2.119502 0.000000 0.000000 0.000000 0.000000 0.000000 0.000000 3.979512 -0.739450 -2.101520 0.912699 0.186796 0.154902 -20.090706 -2.727752 8.655179 0.000000 0.000000 0.000000 3.979512 -0.739450 -2.101520 1.384113 -5.715091 -11.757634 0.000000 0.000000 0.000000 -18.360582 -40.146226 -47.046124 -0.000016 -56.855458 -0.000019 0.000000 0.000000 0.000000 3.979512 -0.739450 -2.101520 -4.126464 21.353056 -2.025800 0.000000 0.000000 0.000000 -21.913704 29.410771 24.489274 -179.999991 72.353574 -180.000005 0.000000 0.000000 0.000000 
-33.106560 49.959343 281.718170 0.000000 0.000000 0.000000 -170.053323 13.680188 -177.351381 -111.642987 -10.773896 37.250052 107.876916 -3.479758 -4.058071 19.408010 -8.065841 10.660762 -0.465200 -0.000006 0.000001 0.000000 0.000000 0.000000 -170.053323 13.680188 -177.351381 -118.643227 15.054015 -13.430280 112.086328 -4.443536 2.753904 17.181604 0.942116 -14.337035 -0.707376 -0.000010 0.000002 0.000000 0.000000 0.000000 -170.053323 13.680188 -177.351381 16.776994 -3.826045 -8.851731 3.953004 -0.732009 -2.129828 0.000000 0.000000 0.000000 0.000000 0.000000 0.000000 3.963048 -0.728871 -2.113283 0.909232 0.164212 0.204962 -20.937803 -2.917532 8.648819 0.000000 0.000000 0.000000 3.963048 -0.728871 -2.113283 1.385783 -5.726410 -11.728833 0.000000 0.000000 0.000000 -18.401735 -40.104272 -47.092771 0.000008 -56.770777 0.000024 0.000000 0.000000 0.000000 3.963048 -0.728871 -2.113283 -4.382720 20.715691 -2.732461 0.000000 0.000000 0.000000 -23.680775 29.747895 24.695005 -179.999978 71.448130 179.999991 0.000000 0.000000 0.000000 
-33.092190 49.964081 281.716217 0.000000 0.000000 0.000000 -170.097023 13.698210 -177.369576 -111.676400 -10.839328 37.197255 107.876943 -3.483701 -4.051996 19.412941 -8.033058 10.585118 -0.461288 0.000003 0.000002 0.000000 0.000000 0.000000 -170.097023 13.698210 -177.369576 -118.656669 15.000817 -13.467723 112.063440 -4.424280 2.770989 17.170773 0.936996 -14.366458 -0.708485 0.000008 -0.000001 0.000000 0.000000 0.000000 -170.097023 13.698210 -177.369576 16.755665 -3.815704 -8.818852 3.936250 -0.726281 -2.133477 0.000000 0.000000 0.000000 0.000000 0.000000 0.000000 3.946135 -0.719993 -2.117365 0.903842 0.149315 0.259419 -21.909468 -3.057868 8.701503 0.000000 0.000000 0.000000 3.946135 -0.719993 -2.117365 1.383553 -5.752324 -11.707943 0.000000 0.000000 0.000000 -18.417687 -40.033829 -47.130723 -0.000027 -56.739847 -0.000008 0.000000 0.000000 0.000000 3.946135 -0.719993 -2.117365 -4.607652 20.141304 -3.226567 0.000000 0.000000 0.000000 -25.254298 30.109301 24.691890 -179.999978 70.810579 179.999991 0.000000 0.000000 0.000000 
-33.079746 49.966904 281.712860 0.000000 0.000000 0.000000 -170.132963 13.713988 -177.383906 -111.702280 -10.885812 37.143446 107.878146 -3.484504 -4.043850 19.395113 -7.994987 10.555835 -0.461236 -0.000004 0.000001 0.000000 0.000000 0.000000 -170.132963 13.713988 -177.383906 -118.666805 14.975653 -13.528043 112.054458 -4.386423 2.794513 17.171270 0.937047 -14.353405 -0.709443 0.000001 0.000004 0.000000 0.000000 0.000000 -170.132963 13.713988 -177.383906 16.705676 -3.809794 -8.765384 3.916781 -0.723951 -2.135147 0.000000 0.000000 0.000000 0.000000 0.000000 0.000000 3.926629 -0.716453 -2.119212 0.892072 0.138526 0.310170 -22.891041 -3.147289 8.763351 0.000000 0.000000 0.000000 3.926629 -0.716453 -2.119212 1.380647 -5.788630 -11.682023 0.000000 0.000000 0.000000 -18.393602 -39.973405 -47.156398 -0.000001 -56.711361 -0.000010 0.000000 0.000000 0.000000 3.926629 -0.716453 -2.119212 -4.867072 19.612531 -3.735025 0.000000 0.000000 0.000000 -26.682762 30.496204 24.731861 -179.999978 70.312488 179.999991 0.000000 0.000000 0.000000 
-33.079136 49.971062 281.713867 0.000000 0.000000 0.000000 -170.245771 13.745583 -177.428480 -111.823297 -10.984520 37.080745 107.881971 -3.488447 -4.038210 19.404718 -7.953410 10.531656 -0.475824 -0.000010 -0.000001 0.000000 0.000000 0.000000 -170.245771 13.745583 -177.428480 -118.726419 14.883824 -13.570811 112.007876 -4.354565 2.821587 17.166844 0.928666 -14.387812 -0.710290 0.000013 -0.000003 0.000000 0.000000 0.000000 -170.245771 13.745583 -177.428480 16.637007 -3.807972 -8.702764 3.896367 -0.724745 -2.135321 0.000000 0.000000 0.000000 0.000000 0.000000 0.000000 3.906195 -0.716057 -2.119339 0.874066 0.130488 0.353806 -23.736866 -3.216741 8.766214 0.000000 0.000000 0.000000 3.906195 -0.716057 -2.119339 1.382999 -5.816931 -11.640309 0.000000 0.000000 0.000000 -18.324808 -39.978566 -47.169157 -0.000012 -56.633183 -0.000002 0.000000 0.000000 0.000000 3.906195 -0.716057 -2.119339 -5.111822 19.128723 -4.298375 0.000000 0.000000 0.000000 -28.006646 30.826092 24.873449 179.999978 69.945372 -179.999978 0.000000 0.000000 0.000000 
-33.082954 49.978317 281.708282 0.000000 0.000000 0.000000 -170.310740 13.748556 -177.458874 -111.891817 -11.041396 37.024591 107.888200 -3.490702 -4.032250 19.395780 -7.919184 10.472413 -0.500302 -0.000002 0.000002 0.000000 0.000000 0.000000 -170.310740 13.748556 -177.458874 -118.744082 14.849017 -13.620073 111.983315 -4.326820 2.841921 17.157413 0.924222 -14.391852 -0.711511 0.000021 0.000001 0.000000 0.000000 0.000000 -170.310740 13.748556 -177.458874 16.583938 -3.832355 -8.644844 3.878882 -0.732319 -2.134467 0.000000 0.000000 0.000000 0.000000 0.000000 0.000000 3.888971 -0.722528 -2.118297 0.855351 0.122778 0.391979 -24.468070 -3.287816 8.717434 0.000000 0.000000 0.000000 3.888971 -0.722528 -2.118297 1.396341 -5.822762 -11.591362 0.000000 0.000000 0.000000 -18.228021 -40.018157 -47.168006 -0.000014 -56.503560 -0.000009 0.000000 0.000000 0.000000 3.888971 -0.722528 -2.118297 -5.339018 18.694212 -4.882527 0.000000 0.000000 0.000000 -29.250804 31.095775 25.087935 179.999978 69.676447 -179.999978 0.000000 0.000000 0.000000 
